<?xml version="1.0" standalone="no"?>
<!DOCTYPE svg PUBLIC "-//W3C//DTD SVG 20010904//EN"
 "http://www.w3.org/TR/2001/REC-SVG-20010904/DTD/svg10.dtd">
<svg version="1.0" xmlns="http://www.w3.org/2000/svg"
 width="1504.000000pt" height="1504.000000pt" viewBox="0 0 1504.000000 1504.000000"
 preserveAspectRatio="xMidYMid meet">
<metadata>
Created by potrace 1.14, written by Peter Selinger 2001-2017
</metadata>
<g transform="translate(0.000000,1504.000000) scale(0.100000,-0.100000)"
fill="#000000" stroke="none">
<path d="M1000 9059 c-540 -64 -836 -252 -926 -589 -24 -90 -25 -310 -1 -400
30 -113 90 -221 171 -307 141 -150 210 -189 981 -563 245 -118 336 -173 393
-234 46 -50 57 -89 49 -177 -10 -116 -77 -187 -209 -220 -65 -16 -106 -18
-383 -14 -171 2 -319 6 -330 8 -11 3 -93 8 -181 12 l-162 7 -52 -28 c-63 -34
-176 -152 -248 -259 l-53 -78 3 -81 3 -81 240 -38 240 -39 580 -1 580 -1 105
27 c410 105 664 314 760 622 45 145 36 358 -20 508 -50 132 -180 283 -332 385
-120 80 -185 112 -583 287 -582 256 -648 291 -681 372 -33 78 -4 183 63 227
63 42 158 58 343 59 157 1 596 -12 629 -18 9 -1 71 -6 139 -10 120 -7 125 -6
177 20 64 31 142 113 220 230 57 86 150 254 143 260 -6 7 -313 53 -488 74
-168 20 -234 27 -420 40 -147 11 -660 11 -750 0z"/>
<path d="M4168 9055 c-182 -29 -314 -90 -414 -189 -107 -107 -94 -70 -519
-1526 -30 -102 -128 -437 -219 -745 -163 -555 -165 -560 -147 -585 l18 -25
402 -3 402 -2 27 27 c24 24 41 77 116 363 49 184 94 340 101 345 12 10 1010
14 1020 4 3 -3 46 -158 96 -345 50 -186 96 -346 102 -354 31 -39 31 -39 437
-40 342 0 399 2 418 16 12 8 22 24 22 35 0 20 -680 2348 -751 2569 -82 258
-222 382 -499 445 -104 24 -489 30 -612 10z m324 -583 c8 -8 318 -1146 318
-1168 0 -12 -54 -14 -371 -14 -348 0 -370 1 -365 18 2 9 70 260 151 557 173
642 162 604 189 615 21 9 65 4 78 -8z"/>
<path d="M7420 9063 c-25 -2 -99 -12 -165 -23 -455 -73 -717 -259 -801 -570
-25 -90 -25 -309 -1 -400 53 -200 186 -361 412 -500 39 -24 271 -141 516 -260
245 -119 472 -234 505 -255 76 -48 133 -102 150 -142 30 -70 12 -197 -38 -257
-70 -85 -175 -108 -483 -105 -121 2 -269 6 -330 10 -60 4 -175 11 -255 15
-139 6 -148 5 -190 -16 -57 -29 -147 -116 -216 -207 -68 -91 -178 -272 -170
-280 3 -3 133 -26 288 -51 l283 -44 580 -1 580 0 116 31 c240 64 400 150 539
291 105 106 159 193 202 331 20 65 23 94 22 225 0 133 -3 159 -26 227 -40 121
-92 204 -187 299 -154 154 -221 191 -796 446 -538 238 -604 274 -634 356 -29
76 2 179 66 220 75 49 168 63 398 61 162 -1 545 -14 579 -19 12 -2 76 -6 143
-10 121 -7 123 -6 173 21 60 33 134 110 206 215 54 78 159 267 152 274 -8 8
-440 72 -612 90 -263 28 -820 44 -1006 28z"/>
<path d="M10560 9059 c-370 -42 -685 -182 -885 -390 -160 -168 -253 -355 -302
-607 -23 -119 -29 -895 -8 -1046 67 -486 354 -828 820 -979 194 -63 163 -61
740 -60 509 0 534 1 624 22 52 12 107 31 122 42 l29 20 0 243 c0 289 3 281
-109 281 -68 0 -296 -13 -388 -21 -29 -3 -146 -5 -260 -6 -158 -1 -226 3 -282
15 -258 57 -400 236 -429 543 -12 126 -6 780 7 854 50 276 186 426 431 476 73
14 123 16 355 11 149 -4 287 -9 307 -13 21 -3 54 0 73 6 52 17 138 101 204
200 63 95 177 317 167 327 -6 7 -331 58 -431 68 -33 4 -96 10 -140 14 -106 11
-550 11 -645 0z"/>
<path d="M13339 9066 c-2 -2 -35 -6 -72 -10 -37 -3 -122 -18 -188 -32 -575
-121 -917 -474 -996 -1024 -4 -30 -8 -260 -8 -510 0 -435 1 -460 23 -562 35
-170 94 -316 178 -445 57 -88 227 -249 327 -311 102 -64 268 -133 404 -169
l98 -26 450 0 450 0 101 26 c395 102 678 320 819 631 70 154 66 97 63 887 l-3
714 -33 81 c-103 257 -295 462 -546 584 -245 119 -491 168 -852 168 -117 1
-213 -1 -215 -2z m419 -632 c188 -40 329 -169 381 -349 37 -126 40 -185 38
-610 -3 -397 -4 -424 -25 -500 -58 -210 -153 -317 -338 -382 -74 -25 -91 -27
-249 -27 -137 -1 -182 3 -230 17 -203 62 -309 178 -367 399 -20 77 -21 111
-24 483 -2 222 1 431 7 470 30 219 124 376 269 450 133 68 353 88 538 49z"/>
</g>
</svg>
